<svg xmlns="http://www.w3.org/2000/svg" width="923" height="1137" viewBox="0 0 923 1137">
<g>
<path d="M 408.50 941.49 C397.11,935.37 381.60,908.67 368.89,873.30 C359.66,847.60 356.27,832.56 353.94,807.01 C350.42,768.30 357.85,732.62 377.43,694.27 C391.57,666.56 410.22,643.35 429.00,630.07 C446.62,617.62 455.04,613.12 471.44,607.38 C483.99,602.98 507.41,596.85 511.77,596.82 C518.53,596.78 522.67,601.87 528.96,618.01 C539.02,643.84 543.28,682.96 539.62,716.00 C533.58,770.53 532.02,780.63 527.08,797.49 C525.47,802.99 524.24,807.57 524.35,807.68 C524.45,807.78 527.00,806.33 530.02,804.45 C536.53,800.38 553.12,793.70 563.83,790.81 C575.33,787.72 593.91,787.75 603.99,790.88 C623.38,796.89 635.23,807.62 642.08,825.36 C646.43,836.59 647.26,850.74 644.07,859.15 C641.52,865.89 635.32,873.25 629.63,876.29 C625.74,878.37 624.45,878.48 607.12,878.22 C585.15,877.89 568.05,879.23 551.05,882.60 C528.14,887.15 520.37,889.54 496.00,899.53 C480.87,905.73 473.18,909.61 457.50,918.98 C450.35,923.25 440.23,929.29 435.00,932.41 C429.77,935.53 424.31,939.01 422.86,940.15 C419.34,942.92 412.37,943.57 408.50,941.49 ZM 712.50 198.25 C702.93,197.84 701.13,196.67 706.57,194.42 C708.73,193.53 715.60,189.42 721.83,185.28 C736.91,175.27 745.13,165.03 750.16,150.00 C754.56,136.84 751.98,114.80 744.89,105.01 C743.30,102.81 742.00,100.79 742.00,100.51 C742.00,98.01 760.01,103.88 767.91,108.94 C781.01,117.35 787.40,138.78 782.01,156.22 C776.71,173.39 759.01,189.94 738.35,197.05 C732.72,198.99 731.19,199.06 712.50,198.25 Z" fill="rgba(15,73,152,1)"/>
<path d="M 645.00 672.66 C645.00,672.39 647.67,666.84 650.93,660.34 C665.19,631.90 668.91,608.35 663.95,578.00 C661.64,563.94 660.03,557.84 655.77,547.00 C639.90,506.69 610.31,483.04 570.50,478.85 C564.45,478.21 559.28,477.50 559.00,477.27 C558.72,477.03 558.28,472.27 558.00,466.67 L 557.50 456.50 L 551.00 455.60 C547.42,455.10 529.65,454.65 511.50,454.60 C484.93,454.52 475.87,454.85 465.00,456.30 C419.18,462.42 385.61,472.12 352.25,488.87 C296.28,516.97 251.68,556.25 226.21,599.89 C224.66,602.54 223.68,602.33 212.91,597.04 C203.28,592.32 191.26,583.49 183.29,575.29 C176.89,568.70 170.00,556.81 170.00,552.35 C170.00,548.85 176.53,538.68 187.68,524.83 C200.81,508.51 205.17,503.83 220.71,489.40 C242.08,469.56 261.91,455.53 292.00,438.99 C320.59,423.27 352.28,410.47 379.74,403.56 C400.48,398.33 404.62,397.64 428.00,395.48 L 445.50 393.86 L 451.46 387.68 C454.74,384.28 461.55,377.23 466.58,372.00 C477.64,360.53 519.49,319.30 530.16,309.35 C552.69,288.35 596.76,261.45 620.07,254.48 C661.94,241.95 688.54,248.33 718.17,278.02 C728.97,288.85 730.20,290.48 734.79,300.11 C745.75,323.11 749.44,335.30 758.37,378.00 C772.79,446.94 772.16,478.47 755.83,505.68 C750.39,514.74 737.27,525.24 726.52,529.13 C724.45,529.88 722.55,531.01 722.31,531.65 C722.06,532.28 722.97,534.98 724.32,537.65 C727.85,544.62 730.66,554.42 731.47,562.57 C733.15,579.58 723.65,609.19 711.39,625.14 C704.67,633.88 688.32,648.70 682.20,651.60 C679.24,653.00 672.25,656.95 666.66,660.39 C653.72,668.35 645.00,673.28 645.00,672.66 ZM 115.50 552.83 C99.53,540.17 82.35,523.29 69.89,508.00 C58.16,493.61 55.14,489.23 48.22,476.50 C34.08,450.49 25.56,424.77 23.00,400.37 C22.43,394.94 21.24,384.92 20.36,378.11 C19.11,368.47 18.87,360.36 19.28,341.61 C19.75,319.73 20.09,316.16 22.86,303.00 C26.17,287.26 33.14,266.11 37.56,258.36 C50.29,236.07 60.85,221.52 75.19,206.49 C87.17,193.94 95.08,187.41 108.69,178.82 C121.93,170.46 151.87,156.07 167.63,150.49 C181.40,145.62 215.78,136.42 233.00,133.01 C250.49,129.55 291.02,124.01 299.00,123.99 C303.12,123.97 310.55,123.55 315.50,123.04 C334.92,121.06 374.40,120.82 392.42,122.59 C409.67,124.29 414.85,125.39 409.99,126.32 C406.16,127.06 376.07,130.86 361.00,132.51 C322.91,136.69 275.00,151.82 240.00,170.72 C235.32,173.24 225.43,178.46 218.00,182.31 C196.13,193.66 180.45,205.37 166.00,221.13 C158.68,229.12 156.90,231.30 144.45,247.59 C136.87,257.51 127.18,272.71 122.48,282.04 C111.60,303.65 105.46,337.60 108.47,359.50 C112.45,388.40 121.74,406.05 145.38,429.57 C157.51,441.64 167.56,448.96 180.58,455.21 C185.21,457.43 189.00,459.70 189.00,460.25 C189.00,461.56 183.48,470.43 167.50,494.78 C149.69,521.91 143.16,534.23 131.96,561.75 C131.45,562.99 130.70,563.98 130.27,563.96 C129.85,563.94 123.20,558.93 115.50,552.83 ZM 671.88 854.50 C668.14,852.46 666.00,847.24 666.00,840.15 C666.00,824.03 658.38,808.88 643.29,795.01 C621.64,775.10 595.90,766.29 570.20,769.97 C562.36,771.10 561.00,771.05 558.19,769.60 C556.45,768.70 554.28,766.83 553.38,765.46 C551.48,762.55 551.83,756.40 555.08,736.00 C561.22,697.55 562.17,681.28 559.51,661.04 C556.02,634.59 553.03,621.35 546.92,605.29 C540.06,587.25 528.97,567.32 520.06,557.00 C514.26,550.29 512.00,546.08 512.00,541.98 C512.00,537.59 513.34,535.56 519.29,530.92 C528.15,524.01 538.98,512.86 544.72,504.72 C551.97,494.44 555.23,492.00 561.73,492.00 C569.27,492.00 582.56,494.78 590.85,498.09 C615.48,507.91 639.58,535.70 649.34,565.50 C656.38,587.02 657.34,599.97 653.56,622.34 C652.08,631.05 650.02,640.95 648.98,644.34 C645.12,656.83 635.13,677.32 626.59,690.25 C625.59,691.76 625.11,693.00 625.53,693.00 C625.95,693.00 630.39,690.99 635.40,688.53 C640.40,686.07 647.65,682.87 651.50,681.42 C655.35,679.97 660.18,677.65 662.22,676.27 C664.27,674.89 666.56,674.00 667.32,674.29 C668.93,674.91 669.97,684.97 670.06,700.90 C670.10,706.73 670.51,715.10 670.97,719.50 C671.43,723.90 672.55,735.15 673.46,744.50 C675.10,761.36 677.62,774.75 680.39,781.39 C682.25,785.83 684.93,787.51 693.27,789.42 C702.13,791.46 706.80,793.93 711.39,799.01 C725.64,814.78 720.69,836.38 700.08,848.34 C687.95,855.39 677.65,857.63 671.88,854.50 ZM 732.25 1079.09 C737.07,1074.03 741.74,1068.45 742.64,1066.70 C743.54,1064.94 747.03,1060.56 750.39,1056.96 C769.44,1036.58 801.91,989.07 813.58,964.50 C821.59,947.63 830.33,917.82 835.13,891.00 C838.11,874.35 838.36,846.03 835.66,832.50 C828.58,797.06 806.29,765.90 771.91,743.35 C753.85,731.51 740.90,726.52 724.70,725.18 L 716.50 724.50 L 715.88 712.50 C715.50,705.19 714.37,697.03 712.98,691.63 C710.87,683.43 710.82,682.68 712.36,681.82 C713.28,681.30 717.59,678.20 721.94,674.93 C731.34,667.84 741.30,657.33 747.63,647.80 C751.10,642.59 752.64,641.04 753.87,641.54 C754.77,641.91 757.75,643.01 760.50,644.00 C779.73,650.91 819.13,670.58 827.11,677.26 C847.47,694.31 859.34,708.62 872.14,731.53 C878.18,742.34 881.90,751.64 887.34,769.50 C895.48,796.25 897.70,807.86 898.64,828.50 C899.82,854.27 896.02,878.89 886.58,906.66 C866.69,965.15 840.42,1003.89 789.20,1050.25 C778.41,1060.02 761.50,1070.92 744.00,1079.36 C722.10,1089.94 721.94,1089.93 732.25,1079.09 ZM 667.67 440.50 C673.60,438.75 680.94,432.67 684.51,426.56 C687.94,420.73 690.98,408.45 692.01,396.38 C693.25,381.67 694.31,379.72 703.20,375.67 C718.56,368.66 723.70,357.07 719.44,339.01 C717.46,330.61 714.56,325.78 707.35,318.93 C696.98,309.06 686.74,304.42 667.80,301.01 C653.50,298.43 651.28,298.47 636.13,301.60 C613.42,306.27 600.29,312.66 589.14,324.45 C576.33,337.99 575.77,354.47 587.77,365.03 C592.55,369.23 597.62,371.09 609.50,373.00 C621.37,374.90 626.40,380.31 624.07,388.70 C622.42,394.65 622.73,415.74 624.57,421.91 C626.28,427.68 632.28,435.05 637.45,437.74 C645.81,442.10 658.41,443.25 667.67,440.50 Z" fill="rgba(22,166,189,1)"/>
<path d="M 531.50 1127.99 C500.02,1126.66 463.57,1120.82 435.10,1112.56 C428.72,1110.70 421.02,1108.63 418.00,1107.96 C407.85,1105.69 398.65,1101.85 372.50,1088.96 C340.83,1073.36 317.95,1058.64 292.63,1037.58 C253.24,1004.83 220.41,968.39 193.01,927.00 C182.42,911.01 176.31,900.38 166.27,880.50 C156.60,861.33 152.72,852.13 144.90,829.70 C138.02,810.00 135.56,800.80 134.01,789.00 C133.39,784.33 132.04,776.22 131.00,771.00 C128.15,756.61 126.00,731.60 126.00,712.79 C126.00,679.97 133.22,629.22 140.69,609.55 C143.15,603.08 162.31,564.37 163.84,562.79 C164.22,562.40 165.78,564.48 167.32,567.42 C174.45,581.03 195.97,599.57 213.29,607.02 C217.32,608.75 218.91,609.95 218.60,611.00 C218.35,611.83 215.88,617.67 213.11,624.00 C206.66,638.75 203.50,654.36 201.38,682.00 C199.60,705.25 200.13,740.58 202.50,756.28 C205.06,773.28 213.98,810.34 219.65,827.50 C241.32,893.15 285.10,947.37 346.14,984.16 C372.33,999.95 390.51,1008.96 414.00,1017.82 C442.98,1028.75 476.46,1036.52 509.93,1040.08 C548.80,1044.22 619.28,1032.52 661.63,1014.90 C704.90,996.89 732.01,976.54 766.08,936.50 C787.75,911.03 799.52,892.35 809.08,868.30 C811.49,862.22 814.39,851.96 817.44,838.63 C818.33,834.77 818.79,835.51 820.52,843.61 C824.29,861.11 824.23,888.54 820.40,907.50 C816.62,926.18 806.09,954.98 795.25,976.29 C784.81,996.80 774.74,1011.45 751.11,1040.50 C714.12,1085.99 706.52,1092.15 665.90,1109.54 C646.76,1117.74 632.84,1121.75 608.50,1126.09 C594.56,1128.57 563.48,1129.34 531.50,1127.99 ZM 366.24 934.87 C339.94,923.75 313.23,898.29 299.73,871.46 C291.96,856.03 284.92,830.03 281.99,806.00 C280.30,792.09 280.60,750.10 282.50,735.50 C285.86,709.65 292.77,687.50 306.67,658.03 C322.94,623.52 352.27,591.03 387.50,568.51 C405.32,557.11 428.14,550.00 446.84,550.00 C464.29,550.01 480.93,553.97 497.54,562.06 C509.63,567.95 515.16,572.43 516.93,577.77 C519.27,584.87 516.35,588.15 506.49,589.48 C440.77,598.38 393.49,634.20 363.04,698.17 C357.50,709.80 349.19,733.49 345.38,748.48 C338.45,775.78 338.21,811.70 344.81,833.00 C345.91,836.58 348.70,845.58 351.00,853.00 C357.94,875.37 374.05,912.13 382.63,925.13 C385.03,928.78 387.00,932.24 387.00,932.81 C387.00,933.39 385.81,934.79 384.37,935.93 C380.63,938.86 374.90,938.53 366.24,934.87 ZM 764.46 272.91 C752.29,260.44 722.06,240.76 706.21,234.99 C679.12,225.13 647.17,223.01 617.64,229.12 C605.95,231.54 588.52,237.53 578.81,242.46 C569.90,246.99 553.24,258.08 549.56,261.92 C547.95,263.62 546.29,265.00 545.88,265.00 C545.47,265.00 541.39,262.49 536.81,259.43 C527.49,253.18 506.09,242.44 489.50,235.69 C434.83,213.44 373.21,205.36 297.50,210.53 C267.10,212.60 249.84,215.26 231.50,220.69 C217.57,224.81 213.09,226.49 191.56,235.64 C183.36,239.12 165.66,250.49 156.01,258.46 C152.99,260.96 150.16,263.00 149.74,263.00 C148.36,263.00 152.77,255.42 158.86,247.35 C168.15,235.02 187.06,217.71 202.97,206.99 C217.48,197.21 255.46,178.50 278.97,169.55 C285.82,166.95 292.51,163.96 293.84,162.91 C299.53,158.43 338.25,149.20 367.20,145.43 C397.95,141.42 474.35,144.23 506.50,150.55 C515.85,152.39 527.46,154.61 532.30,155.49 C541.40,157.14 575.23,166.81 599.13,174.59 C606.62,177.03 620.57,182.79 630.13,187.39 C648.83,196.38 676.19,207.55 687.50,210.82 C695.45,213.11 698.51,213.63 712.37,215.02 C750.42,218.84 787.25,196.95 797.68,164.30 C801.08,153.64 801.81,140.09 799.56,129.01 C795.38,108.39 779.83,91.05 759.09,83.87 C748.50,80.20 734.07,82.15 723.81,88.62 C718.60,91.91 710.98,98.93 711.06,100.38 C711.09,100.99 713.81,103.24 717.10,105.36 C731.70,114.75 738.47,131.80 734.56,149.35 C731.20,164.46 721.37,174.33 704.40,179.62 C696.63,182.04 695.03,182.19 681.77,181.78 C669.32,181.39 666.62,181.00 660.61,178.66 C656.83,177.19 650.69,173.73 646.97,170.98 C635.94,162.80 632.55,157.16 627.94,139.28 C623.99,123.94 623.22,112.18 625.43,101.00 C628.63,84.85 637.22,66.47 648.25,52.17 C660.08,36.84 682.28,24.46 706.66,19.61 C729.61,15.04 752.96,15.92 771.12,22.04 C779.93,25.01 794.74,32.35 803.32,38.01 C814.28,45.23 833.08,65.58 840.32,78.05 C848.09,91.44 855.76,114.44 858.48,132.50 C860.39,145.14 860.39,152.64 858.48,167.17 C854.65,196.35 841.55,221.82 819.62,242.66 C804.72,256.84 775.50,278.00 770.84,278.00 C770.06,278.00 767.19,275.71 764.46,272.91 Z" fill="rgba(67,120,194,1)"/>
</g>
</svg>