<svg xmlns="http://www.w3.org/2000/svg" width="1228" height="854" viewBox="0 0 1228 854">
<g>
<path d="M 253.00 672.30 C243.49,671.55 223.98,667.77 212.07,664.38 C172.27,653.03 133.76,622.59 105.27,579.97 C83.06,546.74 72.08,503.88 76.41,467.28 C78.89,446.26 80.59,439.69 86.87,426.65 L 92.58 414.79 L 95.50 419.41 C98.64,424.39 106.92,431.41 113.70,434.85 L 117.90 436.99 L 115.48 442.25 C111.09,451.84 109.77,460.83 109.64,482.00 C109.52,500.04 109.73,502.47 112.38,514.50 C122.32,559.58 141.54,586.88 178.86,608.95 C198.87,620.79 219.29,628.03 242.27,631.44 C259.76,634.04 274.40,633.06 296.50,627.83 C321.23,621.97 365.49,599.66 397.50,576.91 C408.78,568.89 410.34,567.65 430.66,550.50 C437.17,545.00 447.00,536.92 452.50,532.53 C463.26,523.96 472.10,516.61 481.74,508.23 L 487.81 502.97 L 488.52 508.23 C490.17,520.50 494.61,528.17 503.54,534.18 L 509.01 537.87 L 491.15 552.68 C471.40,569.07 425.26,605.18 412.00,614.64 C389.02,631.03 373.35,640.75 356.50,649.05 C328.69,662.76 310.76,669.15 292.31,671.92 C285.67,672.92 263.57,673.13 253.00,672.30 ZM 789.85 498.61 C781.55,492.27 771.00,475.59 771.00,468.79 C771.00,467.20 770.25,465.67 769.21,465.11 C768.23,464.59 760.92,463.45 752.96,462.58 C741.11,461.30 737.51,460.51 733.03,458.24 C723.25,453.28 719.17,443.09 722.45,431.82 C724.56,424.58 727.43,420.34 732.85,416.54 C736.55,413.94 738.32,413.43 745.19,413.00 C754.64,412.41 778.43,413.49 788.45,414.96 C796.62,416.16 830.46,418.83 846.50,419.54 C852.55,419.81 864.25,420.45 872.50,420.97 C918.27,423.86 930.94,424.27 955.00,423.65 C990.61,422.72 1012.31,419.43 1038.50,410.96 C1063.71,402.82 1084.80,391.16 1098.89,377.61 L 1106.28 370.50 L 1102.89 376.81 C1096.22,389.23 1078.30,402.81 1050.50,416.51 C1019.29,431.90 998.87,438.26 906.00,461.57 L 867.50 471.23 L 845.50 470.54 C833.40,470.17 821.56,469.78 819.18,469.68 L 814.86 469.50 L 813.01 474.74 C810.07,483.05 797.63,502.00 795.12,502.00 C794.66,502.00 792.29,500.48 789.85,498.61 ZM 199.65 583.90 C192.68,575.76 183.16,552.61 180.49,537.30 C178.60,526.46 178.58,510.14 180.44,501.30 C186.61,471.96 204.57,447.76 227.69,437.65 C237.10,433.53 250.61,430.27 252.75,431.60 C255.50,433.30 258.83,440.06 261.16,448.64 C265.18,463.49 263.52,502.09 258.06,520.67 L 256.24 526.85 L 261.95 523.95 C283.59,512.95 305.18,518.50 310.53,536.43 C312.52,543.12 312.38,546.58 309.90,551.71 C306.85,558.00 304.22,559.00 290.60,559.00 C276.03,559.00 260.89,561.83 247.46,567.07 C238.33,570.63 219.42,580.72 212.11,585.92 C207.41,589.27 203.73,588.67 199.65,583.90 ZM 756.00 520.08 C736.93,514.05 714.09,495.08 705.94,478.50 C698.09,462.52 694.94,436.14 698.91,419.58 C705.52,391.97 736.42,343.74 751.53,337.42 C759.70,334.01 784.64,337.23 797.57,343.37 C810.50,349.51 820.74,361.98 821.71,372.75 C822.35,379.93 820.90,385.44 816.74,391.62 C812.18,398.39 806.24,402.52 796.74,405.52 C780.24,410.74 767.92,408.12 770.52,399.95 C770.90,398.75 770.51,396.90 769.57,395.47 C766.89,391.37 762.27,389.62 754.00,389.56 C747.70,389.51 745.57,389.96 740.65,392.37 C733.99,395.64 725.41,403.73 721.47,410.46 C712.24,426.21 711.34,446.96 719.22,462.43 C722.12,468.11 730.75,476.84 736.21,479.61 C745.41,484.27 756.72,482.32 764.75,474.70 C766.54,473.00 768.00,472.17 768.00,472.85 C768.00,473.53 769.69,477.56 771.75,481.80 C774.57,487.59 777.51,491.53 783.65,497.72 L 791.79 505.94 L 787.65 509.75 C785.37,511.85 780.98,515.47 777.91,517.78 C772.87,521.58 771.78,521.99 766.91,521.91 C763.93,521.86 759.03,521.04 756.00,520.08 ZM 381.50 532.96 C355.54,530.21 335.95,511.30 336.02,489.07 C336.08,472.94 347.36,463.05 366.72,462.18 C371.78,461.95 377.55,462.07 379.53,462.44 C383.83,463.25 390.76,469.20 392.65,473.72 C395.47,480.46 393.68,490.50 388.70,495.83 C384.24,500.61 374.91,503.45 368.44,501.99 C363.98,500.98 364.01,502.33 368.54,506.61 C380.56,517.94 404.71,513.59 413.55,498.51 C416.91,492.77 420.00,481.73 419.99,475.50 C419.96,462.49 407.98,449.15 392.07,444.43 C389.28,443.60 387.00,442.72 387.00,442.48 C387.00,442.24 388.91,441.07 391.25,439.89 C397.82,436.56 408.80,424.64 414.91,414.23 C417.89,409.15 420.64,405.00 421.03,405.00 C422.83,405.00 438.76,409.31 443.50,411.09 C447.76,412.68 449.67,414.20 453.08,418.72 C462.64,431.38 467.12,445.08 467.25,462.00 C467.34,474.34 465.75,480.78 459.78,492.29 C452.53,506.27 443.10,514.61 424.06,523.92 C407.35,532.10 396.04,534.49 381.50,532.96 ZM 322.79 547.25 C321.95,546.29 321.01,542.89 320.70,539.69 C319.05,522.78 297.59,507.42 278.47,509.47 C273.45,510.00 271.96,509.82 270.64,508.49 C268.64,506.50 268.63,505.79 270.48,494.50 C271.30,489.55 272.26,481.39 272.62,476.37 C274.25,453.79 267.13,428.75 254.60,413.00 C252.63,410.52 251.02,407.48 251.01,406.23 C251.00,404.74 253.48,401.49 258.25,396.73 C262.24,392.75 266.78,388.04 268.33,386.25 C271.49,382.64 272.92,382.42 281.15,384.36 C288.76,386.15 294.39,389.63 301.14,396.71 C313.69,409.87 318.50,427.56 314.56,446.12 C312.77,454.56 307.74,466.44 303.95,471.19 C299.04,477.34 300.88,478.99 307.78,474.64 C309.84,473.34 313.85,471.10 316.68,469.66 L 321.83 467.05 L 322.41 474.78 C323.99,495.72 325.36,507.85 326.65,512.18 C328.01,516.78 328.27,517.02 333.49,518.54 C341.87,520.98 345.93,526.86 344.66,534.71 C343.92,539.29 339.87,543.60 333.50,546.62 C327.53,549.44 324.83,549.60 322.79,547.25 ZM 656.24 413.25 C650.25,392.38 646.00,375.73 646.00,373.11 C646.00,370.87 648.58,368.45 662.75,357.40 C686.31,339.03 702.64,328.28 737.09,308.46 C770.43,289.28 788.50,280.29 796.47,278.92 C808.98,276.76 834.97,279.35 856.68,284.91 C865.63,287.20 882.05,292.76 883.26,293.91 C883.68,294.30 881.43,295.44 878.26,296.43 C869.64,299.13 840.98,311.57 819.24,322.04 L 800.00 331.31 L 788.75 328.40 C778.20,325.68 776.34,325.51 759.00,325.60 C738.14,325.71 730.63,327.13 717.20,333.49 C692.53,345.18 675.42,365.58 666.59,393.83 C664.01,402.07 661.00,417.05 661.00,421.63 C661.00,426.72 659.19,423.53 656.24,413.25 ZM 180.91 582.81 C171.60,578.17 159.47,565.78 154.68,556.00 C148.71,543.83 146.86,534.95 146.26,515.70 C145.49,490.82 147.69,479.79 157.48,459.50 C163.14,447.77 171.57,436.19 179.59,429.13 C186.77,422.81 198.07,415.51 204.70,412.90 C212.57,409.81 226.56,409.15 234.67,411.49 C247.71,415.26 256.34,422.09 252.67,425.76 C251.89,426.54 247.53,427.83 242.99,428.62 C212.03,433.99 190.11,455.01 177.81,491.09 L 173.58 503.50 L 173.55 519.50 L 173.53 535.50 L 177.67 547.50 C181.66,559.08 188.98,575.52 192.70,581.28 C194.28,583.73 194.31,584.19 193.00,585.02 C190.44,586.64 187.55,586.12 180.91,582.81 Z" fill="rgba(30,118,189,1)"/>
<path d="M 314.03 459.75 C317.79,452.78 321.00,440.88 321.00,433.88 C321.00,424.89 318.15,412.11 314.41,404.28 C310.30,395.70 302.08,386.45 295.25,382.74 C289.73,379.73 280.23,377.00 275.29,377.00 C272.02,377.00 272.00,376.97 272.00,372.14 L 272.00 367.28 L 266.75 366.65 C257.83,365.58 238.02,365.97 227.00,367.44 C199.14,371.15 175.51,380.75 152.74,397.61 C142.95,404.86 129.43,418.89 124.44,426.96 C122.39,430.28 120.31,433.00 119.82,433.00 C119.33,433.00 116.73,431.88 114.03,430.51 C107.63,427.27 98.40,418.47 96.52,413.83 C95.06,410.20 95.08,410.11 99.22,403.83 C105.61,394.14 124.91,375.39 135.91,368.19 C160.87,351.84 188.67,341.27 211.63,339.40 L 220.12 338.72 L 240.81 318.11 C263.39,295.62 273.05,288.03 289.49,279.87 C312.08,268.67 328.05,270.24 343.63,285.20 C352.57,293.79 356.72,303.05 361.44,325.04 C367.88,355.01 368.89,371.86 364.91,382.51 C362.32,389.43 355.79,396.89 350.05,399.48 C346.10,401.26 346.09,401.28 347.58,404.16 C350.25,409.32 351.24,417.53 349.95,423.80 C347.82,434.11 344.01,440.90 336.43,447.87 C328.09,455.53 314.39,465.00 311.65,465.00 C311.40,465.00 312.47,462.64 314.03,459.75 ZM 376.49 440.33 C374.60,439.95 374.51,439.29 374.86,428.32 L 375.22 416.72 L 381.16 409.64 C392.37,396.29 395.91,385.65 396.68,363.00 L 397.20 347.50 L 393.15 339.50 C390.89,335.04 389.48,331.12 389.96,330.64 C391.76,328.84 402.88,327.03 412.26,327.02 C425.95,326.99 440.19,329.37 453.58,333.90 C479.55,342.70 490.85,354.90 491.82,375.17 C492.18,382.63 491.92,384.53 490.04,388.42 C487.31,394.07 479.67,401.03 472.19,404.70 C467.17,407.17 465.38,407.50 457.00,407.50 C449.20,407.50 446.61,407.09 442.50,405.20 C435.77,402.10 432.23,398.57 429.24,392.00 C426.56,386.12 425.88,377.23 427.37,367.75 C427.80,365.03 427.74,363.00 427.22,363.00 C426.72,363.00 423.59,364.76 420.26,366.91 C414.96,370.34 413.95,371.52 412.11,376.45 C408.78,385.34 409.59,396.80 413.92,402.16 C415.76,404.42 415.76,404.55 413.78,408.49 C408.00,419.96 396.83,432.13 386.88,437.80 C381.36,440.94 380.55,441.14 376.49,440.33 ZM 735.73 529.97 C728.05,528.66 717.40,524.14 711.23,519.56 C702.11,512.79 688.02,497.36 682.86,488.48 C672.62,470.89 668.72,458.30 668.74,443.00 C668.77,426.71 672.99,410.52 682.50,390.30 C690.02,374.30 701.99,359.86 715.18,350.89 C721.08,346.87 737.94,339.00 740.64,339.00 C741.57,339.00 739.40,341.99 735.31,346.38 C726.89,355.39 720.29,364.85 711.74,380.16 C701.14,399.13 697.14,408.65 694.45,421.32 C690.70,438.93 695.20,468.16 704.02,483.50 C713.46,499.94 736.11,518.07 754.00,523.51 C757.03,524.44 760.16,525.40 760.97,525.65 C762.27,526.05 762.27,526.22 760.97,527.03 C757.27,529.34 742.28,531.09 735.73,529.97 ZM 987.00 501.37 C985.08,501.21 961.45,500.56 934.50,499.93 C907.55,499.29 880.78,498.48 875.00,498.13 L 864.50 497.50 L 860.26 489.00 C855.13,478.71 854.83,476.47 858.75,477.46 C860.26,477.83 874.96,478.39 891.41,478.69 L 921.33 479.24 L 923.78 482.15 C927.18,486.19 931.37,488.19 934.74,487.38 C939.72,486.19 942.70,484.14 943.98,481.05 L 945.24 478.00 L 962.87 477.98 C972.57,477.97 987.25,477.30 995.50,476.49 C1003.75,475.68 1010.62,475.02 1010.77,475.01 C1010.92,475.01 1010.74,476.24 1010.38,477.75 C1009.35,482.01 1005.60,488.89 1000.57,495.75 C998.24,498.92 997.16,500.52 995.66,501.24 C994.01,502.04 991.86,501.78 987.00,501.37 ZM 325.00 358.05 C328.94,355.28 330.88,350.99 332.07,342.46 C333.36,333.21 334.13,331.43 337.25,330.65 C338.52,330.33 340.89,328.68 342.53,326.97 C345.13,324.25 345.50,323.15 345.47,318.15 C345.43,311.15 342.73,306.28 336.49,301.99 C319.37,290.21 286.86,297.37 281.87,314.02 C280.85,317.44 280.92,318.60 282.29,321.49 C284.37,325.85 287.29,327.73 293.96,328.99 C301.80,330.48 302.13,330.96 301.42,339.88 C300.71,348.86 302.20,354.34 306.12,357.25 C311.39,361.16 320.07,361.53 325.00,358.05 ZM 528.00 420.25 C528.02,416.85 552.72,357.57 557.56,349.30 C561.18,343.13 566.83,340.19 577.62,338.87 C596.78,336.51 614.18,339.32 620.21,345.75 C622.71,348.43 630.35,368.62 629.42,370.12 C629.18,370.52 627.61,371.15 625.94,371.51 C623.29,372.10 622.28,371.60 618.08,367.67 C610.40,360.49 604.33,357.92 593.49,357.27 C585.86,356.82 583.07,357.09 577.26,358.85 C564.80,362.64 554.05,372.40 551.92,381.84 C550.18,389.60 554.85,398.16 563.25,402.60 C564.76,403.40 566.00,404.71 566.00,405.51 C566.00,407.16 564.25,407.97 544.27,415.58 C529.86,421.07 528.00,421.60 528.00,420.25 ZM 876.00 413.98 C868.03,413.60 858.46,412.94 854.75,412.53 L 848.00 411.77 L 848.00 405.34 C848.00,393.14 850.15,364.48 851.57,357.69 C852.35,353.95 853.61,349.71 854.37,348.27 C855.73,345.66 855.76,345.70 859.70,354.07 C870.17,376.33 888.87,397.41 906.18,406.47 C910.03,408.48 911.99,410.16 912.28,411.69 C912.52,412.94 912.48,414.19 912.19,414.48 C911.54,415.13 895.19,414.90 876.00,413.98 ZM 1034.67 500.33 C1034.30,499.97 1034.00,493.47 1034.00,485.90 L 1034.00 472.14 L 1039.75 470.99 C1056.16,467.71 1070.44,463.43 1081.83,458.40 C1084.81,457.08 1087.65,456.00 1088.14,456.00 C1088.65,456.00 1088.92,465.20 1088.77,477.25 L 1088.50 498.50 L 1067.00 499.66 C1040.58,501.08 1035.52,501.18 1034.67,500.33 ZM 427.50 528.08 C447.67,517.77 463.36,500.14 469.44,480.96 C472.62,470.95 474.06,459.79 473.00,453.38 C471.59,444.81 468.02,433.92 463.91,425.63 C461.76,421.31 460.00,417.58 460.00,417.36 C460.00,417.13 461.46,417.70 463.25,418.63 C468.56,421.37 478.83,431.95 483.49,439.47 C490.25,450.39 491.51,455.31 491.44,470.50 C491.39,482.26 491.14,484.03 488.84,489.00 C481.89,504.00 461.06,520.19 439.16,527.60 C433.85,529.40 427.25,531.16 424.50,531.52 L 419.50 532.17 ZM 959.88 416.34 C959.82,415.88 959.81,415.17 959.88,414.77 C959.94,414.36 960.44,405.83 960.98,395.81 C961.85,379.99 964.03,361.70 965.61,357.03 C965.91,356.15 967.70,358.53 970.13,363.03 C978.70,378.92 991.31,392.58 1006.80,402.75 C1015.71,408.59 1016.77,410.72 1011.50,412.20 C1003.38,414.48 960.11,417.95 959.88,416.34 ZM 1034.56 405.22 C1034.25,404.92 1034.02,392.70 1034.05,378.08 C1034.08,359.27 1034.45,350.65 1035.33,348.60 L 1036.57 345.70 L 1041.01 352.51 C1048.30,363.70 1062.76,376.87 1073.88,382.46 C1076.52,383.79 1078.06,384.55 1078.15,385.46 C1078.28,386.71 1075.70,388.23 1069.57,391.87 C1059.96,397.58 1036.04,406.71 1034.56,405.22 Z" fill="rgba(24,178,188,1)"/>
<path d="M 527.47 532.57 C515.00,530.48 506.00,524.66 501.59,515.81 C498.76,510.13 498.42,506.97 500.10,502.15 L 501.20 499.00 L 509.49 499.00 C525.16,499.00 546.07,490.92 562.55,478.49 C572.40,471.06 572.57,471.27 567.62,485.07 C565.76,490.26 562.83,498.40 561.12,503.17 C559.40,507.94 557.99,512.66 557.97,513.67 C557.96,514.68 556.03,518.65 553.68,522.50 C550.38,527.91 548.42,530.01 545.00,531.75 C540.15,534.22 537.93,534.32 527.47,532.57 ZM 638.50 533.54 C637.95,533.34 636.31,532.91 634.85,532.59 C633.11,532.21 631.34,530.55 629.71,527.76 C625.52,520.60 617.38,503.89 614.47,496.50 C612.95,492.65 609.09,484.25 605.88,477.82 L 600.06 466.15 L 608.78 460.38 C613.81,457.05 621.95,450.15 628.03,444.06 C636.60,435.47 639.35,431.95 642.78,425.18 C647.76,415.34 646.96,414.43 653.08,437.00 C658.53,457.10 660.10,462.27 668.67,488.50 C676.05,511.04 676.17,511.61 675.17,517.19 C673.07,528.84 667.46,532.51 650.50,533.36 C644.45,533.67 639.05,533.75 638.50,533.54 ZM 915.50 529.56 C906.38,527.18 893.85,522.53 887.16,519.04 C882.84,516.78 868.24,503.43 869.12,502.54 C869.46,502.21 881.38,502.38 895.62,502.92 C909.85,503.47 937.47,504.23 956.98,504.60 L 992.46 505.29 L 985.98 511.29 C978.00,518.68 971.51,522.90 962.85,526.34 C947.41,532.47 930.98,533.59 915.50,529.56 ZM 1052.99 531.07 C1042.41,527.85 1034.03,517.60 1034.01,507.85 C1034.00,505.30 1034.26,505.18 1040.75,504.63 C1044.46,504.31 1056.84,503.77 1068.25,503.42 C1085.85,502.88 1089.00,503.00 1089.00,504.21 C1089.00,508.28 1086.54,517.98 1084.46,522.07 C1082.02,526.90 1079.24,528.79 1071.50,530.90 C1066.99,532.13 1056.78,532.22 1052.99,531.07 ZM 503.75 495.33 C502.79,495.07 502.00,494.70 502.00,494.52 C502.00,492.55 511.48,462.17 516.98,446.53 C520.84,435.55 524.00,426.48 524.00,426.39 C524.00,426.30 525.69,425.91 527.75,425.52 C529.81,425.14 539.41,421.71 549.07,417.91 C558.73,414.11 566.94,411.00 567.32,411.00 C567.69,411.00 568.00,411.79 568.00,412.75 C568.00,418.93 578.64,433.74 584.79,436.13 C595.82,440.42 606.03,432.15 610.62,415.19 C612.18,409.42 612.73,408.59 615.87,407.28 C625.29,403.34 630.69,394.94 629.42,386.19 C629.05,383.61 628.09,380.22 627.30,378.66 C625.64,375.39 625.64,375.38 629.09,374.51 C631.63,373.88 631.76,374.12 637.96,391.38 C642.83,404.96 644.10,409.64 643.62,412.20 C642.66,417.33 637.75,426.87 632.54,433.76 C625.48,443.11 608.80,457.05 598.50,462.22 C594.13,464.41 581.82,467.19 575.66,467.38 C570.94,467.53 569.72,468.05 565.15,471.88 C554.03,481.18 535.61,490.55 522.83,493.40 C515.33,495.08 506.20,496.00 503.75,495.33 ZM 883.00 471.35 C884.38,471.05 903.05,466.39 924.50,461.00 C1002.24,441.45 1028.92,432.69 1059.00,416.82 C1083.42,403.94 1099.83,390.85 1107.40,378.24 C1113.64,367.84 1115.26,362.05 1115.78,348.19 C1116.21,336.95 1116.07,335.70 1114.26,333.69 C1113.16,332.49 1110.61,328.29 1108.58,324.37 C1103.95,315.46 1095.64,305.29 1088.76,300.15 C1073.03,288.39 1034.03,275.92 1005.47,273.51 C997.55,272.84 977.09,274.06 961.50,276.13 C951.18,277.50 914.08,285.41 902.65,288.67 L 893.80 291.20 L 886.15 288.18 C868.58,281.25 840.77,274.56 825.00,273.49 C820.33,273.17 814.47,272.66 812.00,272.35 L 807.50 271.80 L 812.16 269.43 C821.58,264.63 852.43,251.84 864.78,247.61 C882.82,241.43 896.50,237.71 920.00,232.58 C972.86,221.04 1008.30,220.02 1045.50,228.98 C1073.23,235.66 1104.60,248.55 1118.00,258.77 C1141.83,276.94 1161.27,308.08 1165.09,334.20 C1169.84,366.65 1156.00,398.37 1127.74,419.86 C1117.02,428.00 1099.32,439.00 1096.93,439.00 C1096.03,439.00 1089.71,441.65 1082.89,444.88 C1059.79,455.84 1025.56,465.09 997.00,468.09 C985.12,469.33 878.18,472.39 883.00,471.35 ZM 904.96 401.23 C895.19,395.55 879.62,379.61 871.15,366.60 C867.25,360.60 862.85,352.61 861.37,348.85 C858.77,342.21 858.74,341.94 860.50,340.00 C864.06,336.07 872.15,333.00 880.71,332.34 C888.24,331.76 889.16,331.91 893.24,334.29 C901.18,338.95 906.19,348.55 907.95,362.50 C909.09,371.49 911.89,404.30 911.55,404.73 C911.46,404.85 908.49,403.28 904.96,401.23 ZM 1007.61 398.81 C993.47,389.01 979.15,372.70 971.62,357.82 C967.25,349.18 967.28,347.68 971.96,341.21 C980.36,329.62 994.45,327.84 1004.49,337.10 C1008.89,341.15 1011.40,346.23 1014.46,357.24 C1016.87,365.93 1016.61,403.15 1014.13,402.95 C1013.79,402.92 1010.85,401.06 1007.61,398.81 ZM 1075.23 378.58 C1063.32,372.15 1050.94,360.81 1043.56,349.56 L 1039.01 342.61 L 1041.17 340.32 C1045.03,336.21 1053.47,333.68 1063.65,333.58 C1072.45,333.50 1072.95,333.62 1076.65,336.60 C1083.91,342.46 1086.76,347.62 1087.94,357.01 C1089.72,371.20 1089.39,377.29 1086.69,379.83 C1083.65,382.68 1082.65,382.57 1075.23,378.58 Z" fill="rgba(103,168,209,1)"/>
</g>
</svg>